<?xml version="1.0" standalone="no"?>
<!DOCTYPE svg PUBLIC "-//W3C//DTD SVG 20010904//EN"
 "http://www.w3.org/TR/2001/REC-SVG-20010904/DTD/svg10.dtd">
<svg version="1.0" xmlns="http://www.w3.org/2000/svg"
 width="19" height="19" viewBox="0 0 44.000000 40.000000"
 preserveAspectRatio="xMidYMid meet">

<g transform="translate(0.000000,40.000000) scale(0.100000,-0.100000)"
fill="#00a8a9" stroke="none">
<path d="M192 317 l-62 -63 0 -117 c0 -137 -8 -130 135 -125 l90 3 27 55 c38
76 52 124 44 154 -6 25 -9 26 -81 26 -82 0 -81 -1 -65 65 8 37 0 65 -19 65 -4
0 -35 -28 -69 -63z m43 -47 l-13 -50 89 0 c64 0 89 -3 89 -12 0 -7 -14 -48
-32 -90 l-32 -78 -88 0 -88 0 0 97 0 97 42 43 c23 24 43 43 44 43 1 0 -4 -22
-11 -50z"/>
<path d="M10 120 l0 -110 35 0 35 0 0 110 0 110 -35 0 -35 0 0 -110z"/>
</g>
</svg>
