<?xml version="1.0" standalone="no"?>
<!DOCTYPE svg PUBLIC "-//W3C//DTD SVG 20010904//EN"
 "http://www.w3.org/TR/2001/REC-SVG-20010904/DTD/svg10.dtd">
<svg version="1.0" xmlns="http://www.w3.org/2000/svg"
 width="19" height="19" viewBox="0 0 44.000000 40.000000"
 preserveAspectRatio="xMidYMid meet">

<g transform="translate(0.000000,40.000000) scale(0.100000,-0.100000)"
fill="#00a8a9" stroke="none">
<path d="M76 368 c-23 -36 -66 -145 -66 -167 0 -46 9 -51 86 -51 81 0 80 1 64
-65 -7 -31 -6 -43 5 -55 13 -13 23 -7 80 50 l65 64 0 117 c0 97 -3 118 -16
123 -9 3 -58 6 -110 6 -86 0 -95 -2 -108 -22z m204 -106 l0 -98 -45 -44 -44
-43 14 51 13 52 -83 0 c-48 0 -87 5 -90 11 -4 5 8 46 26 90 l33 79 88 0 88 0
0 -98z"/>
<path d="M360 280 l0 -110 35 0 35 0 0 110 0 110 -35 0 -35 0 0 -110z"/>
</g>
</svg>
